<svg xmlns="http://www.w3.org/2000/svg" width="1366" height="1024" viewBox="0 0 1366 1024">
  <defs>
    <pattern id="dotsB" width="28" height="28" patternUnits="userSpaceOnUse"><circle cx="3" cy="3" r="2" fill="#E9DCCB"/></pattern>
    <filter id="shadowB" x="-30%" y="-30%" width="160%" height="160%"><feDropShadow dx="0" dy="8" stdDeviation="8" flood-color="#7A6041" flood-opacity=".18"/></filter>
    <style>.headB{font:900 34px 'Arial Rounded MT Bold',Arial,sans-serif;fill:#432C22}.subB{font:700 15px Arial,sans-serif;fill:#76594A}.tileB{stroke:#442F28;stroke-width:2}.symB{font:900 16px Arial,sans-serif;fill:#442F28}.numB{font:800 7px Arial,sans-serif;fill:#442F28}.smallB{font:700 10px Arial,sans-serif;fill:#76594A}</style>
  </defs>
  <rect width="1366" height="1024" fill="#FFF8EA"/><rect width="1366" height="1024" fill="url(#dotsB)" opacity=".55"/>
  <path d="M0 0H240L178 101L0 126Z" fill="#FFCF5C"/><path d="M1366 0H1160L1216 101L1366 143Z" fill="#70D7C0"/><path d="M0 1024V867L148 913L204 1024Z" fill="#F78CA8"/><path d="M1366 1024V866L1217 918L1160 1024Z" fill="#8BB7FF"/>
  <g transform="translate(52 31)"><rect width="56" height="56" rx="16" fill="#F56646" transform="rotate(-5 28 28)"/><text x="28" y="41" text-anchor="middle" style="font:900 28px Arial;fill:#fff">E!</text><text x="76" y="34" class="headB">My Element Sticker Book</text><text x="78" y="57" class="subB">Tap one. Fill your book with discoveries!</text></g>
  <g transform="translate(1107 29)"><rect width="208" height="62" rx="18" fill="#fff" stroke="#432C22" stroke-width="2"/><circle cx="34" cy="31" r="20" fill="#FFCF5C"/><text x="34" y="38" text-anchor="middle" style="font-size:21px">⭐</text><text x="64" y="27" class="smallB">STICKERS FOUND</text><text x="64" y="48" style="font:900 18px Arial;fill:#432C22">12 / 118</text></g>
  <rect x="36" y="118" width="1294" height="610" rx="30" fill="#FFFDF7" stroke="#432C22" stroke-width="3" filter="url(#shadowB)"/>
  <text x="69" y="161" style="font:900 21px Arial;fill:#432C22">Pick an element</text>
  <g transform="translate(65 186)">
    <g id="bRed"><rect width="60" height="59" rx="13" class="tileB" fill="#FF927B"/></g><g id="bYellow"><rect width="60" height="59" rx="13" class="tileB" fill="#FFD96A"/></g><g id="bGreen"><rect width="60" height="59" rx="13" class="tileB" fill="#8DE0B7"/></g><g id="bBlue"><rect width="60" height="59" rx="13" class="tileB" fill="#94CBFF"/></g><g id="bPurple"><rect width="60" height="59" rx="13" class="tileB" fill="#C4A5FF"/></g><g id="bPeach"><rect width="60" height="59" rx="13" class="tileB" fill="#FFB97E"/></g>
    <g transform="translate(0)"><use href="#bRed"/><text x="7" y="12" class="numB">1</text><text x="30" y="38" text-anchor="middle" class="symB">H</text></g><g transform="translate(1190)"><use href="#bPurple"/><text x="7" y="12" class="numB">2</text><text x="30" y="38" text-anchor="middle" class="symB">He</text></g>
    <g transform="translate(0 68)"><use href="#bPeach"/><text x="30" y="38" text-anchor="middle" class="symB">Li</text></g><g transform="translate(70 68)"><use href="#bYellow"/><text x="30" y="38" text-anchor="middle" class="symB">Be</text></g>
    <g transform="translate(840 68)"><use href="#bGreen"/><text x="30" y="38" text-anchor="middle" class="symB">B</text></g><g transform="translate(910 68)"><use href="#bBlue"/><text x="30" y="38" text-anchor="middle" class="symB">C</text></g><g transform="translate(980 68)"><use href="#bBlue"/><text x="30" y="38" text-anchor="middle" class="symB">N</text></g><g transform="translate(1050 68)"><rect width="60" height="59" rx="13" fill="#94CBFF" stroke="#F56646" stroke-width="6"/><text x="30" y="38" text-anchor="middle" class="symB">O</text></g><g transform="translate(1120 68)"><use href="#bBlue"/><text x="30" y="38" text-anchor="middle" class="symB">F</text></g><g transform="translate(1190 68)"><use href="#bPurple"/><text x="30" y="38" text-anchor="middle" class="symB">Ne</text></g>
    <g transform="translate(0 136)"><use href="#bPeach"/><text x="30" y="38" text-anchor="middle" class="symB">Na</text></g><g transform="translate(70 136)"><use href="#bYellow"/><text x="30" y="38" text-anchor="middle" class="symB">Mg</text></g><g transform="translate(840 136)"><use href="#bGreen"/><text x="30" y="38" text-anchor="middle" class="symB">Al</text></g><g transform="translate(910 136)"><use href="#bGreen"/><text x="30" y="38" text-anchor="middle" class="symB">Si</text></g><g transform="translate(980 136)"><use href="#bBlue"/><text x="30" y="38" text-anchor="middle" class="symB">P</text></g><g transform="translate(1050 136)"><use href="#bBlue"/><text x="30" y="38" text-anchor="middle" class="symB">S</text></g><g transform="translate(1120 136)"><use href="#bBlue"/><text x="30" y="38" text-anchor="middle" class="symB">Cl</text></g><g transform="translate(1190 136)"><use href="#bPurple"/><text x="30" y="38" text-anchor="middle" class="symB">Ar</text></g>
    <g fill="#8ED8D0" stroke="#432C22" stroke-width="2">
      <rect x="0" y="204" width="60" height="59" rx="13" fill="#FFB97E"/><rect x="70" y="204" width="60" height="59" rx="13" fill="#FFD96A"/><rect x="140" y="204" width="60" height="59" rx="13"/><rect x="210" y="204" width="60" height="59" rx="13"/><rect x="280" y="204" width="60" height="59" rx="13"/><rect x="350" y="204" width="60" height="59" rx="13"/><rect x="420" y="204" width="60" height="59" rx="13"/><rect x="490" y="204" width="60" height="59" rx="13"/><rect x="560" y="204" width="60" height="59" rx="13"/><rect x="630" y="204" width="60" height="59" rx="13"/><rect x="700" y="204" width="60" height="59" rx="13"/><rect x="770" y="204" width="60" height="59" rx="13"/><rect x="840" y="204" width="60" height="59" rx="13"/><rect x="910" y="204" width="60" height="59" rx="13"/><rect x="980" y="204" width="60" height="59" rx="13"/><rect x="1050" y="204" width="60" height="59" rx="13"/><rect x="1120" y="204" width="60" height="59" rx="13"/><rect x="1190" y="204" width="60" height="59" rx="13"/>
      <rect x="0" y="272" width="60" height="59" rx="13" fill="#FFB97E"/><rect x="70" y="272" width="60" height="59" rx="13" fill="#FFD96A"/><rect x="140" y="272" width="60" height="59" rx="13"/><rect x="210" y="272" width="60" height="59" rx="13"/><rect x="280" y="272" width="60" height="59" rx="13"/><rect x="350" y="272" width="60" height="59" rx="13"/><rect x="420" y="272" width="60" height="59" rx="13"/><rect x="490" y="272" width="60" height="59" rx="13"/><rect x="560" y="272" width="60" height="59" rx="13"/><rect x="630" y="272" width="60" height="59" rx="13"/><rect x="700" y="272" width="60" height="59" rx="13"/><rect x="770" y="272" width="60" height="59" rx="13"/><rect x="840" y="272" width="60" height="59" rx="13"/><rect x="910" y="272" width="60" height="59" rx="13"/><rect x="980" y="272" width="60" height="59" rx="13"/><rect x="1050" y="272" width="60" height="59" rx="13"/><rect x="1120" y="272" width="60" height="59" rx="13"/><rect x="1190" y="272" width="60" height="59" rx="13"/>
      <rect x="0" y="340" width="60" height="59" rx="13" fill="#FFB97E"/><rect x="70" y="340" width="60" height="59" rx="13" fill="#FFD96A"/><rect x="140" y="340" width="60" height="59" rx="13"/><rect x="210" y="340" width="60" height="59" rx="13"/><rect x="280" y="340" width="60" height="59" rx="13"/><rect x="350" y="340" width="60" height="59" rx="13"/><rect x="420" y="340" width="60" height="59" rx="13"/><rect x="490" y="340" width="60" height="59" rx="13"/><rect x="560" y="340" width="60" height="59" rx="13"/><rect x="630" y="340" width="60" height="59" rx="13"/><rect x="700" y="340" width="60" height="59" rx="13"/><rect x="770" y="340" width="60" height="59" rx="13"/><rect x="840" y="340" width="60" height="59" rx="13"/><rect x="910" y="340" width="60" height="59" rx="13"/><rect x="980" y="340" width="60" height="59" rx="13"/><rect x="1050" y="340" width="60" height="59" rx="13"/><rect x="1120" y="340" width="60" height="59" rx="13"/><rect x="1190" y="340" width="60" height="59" rx="13"/>
    </g>
    <g fill="#C4A5FF" stroke="#432C22" stroke-width="2"><rect x="210" y="426" width="60" height="49" rx="13"/><rect x="280" y="426" width="60" height="49" rx="13"/><rect x="350" y="426" width="60" height="49" rx="13"/><rect x="420" y="426" width="60" height="49" rx="13"/><rect x="490" y="426" width="60" height="49" rx="13"/><rect x="560" y="426" width="60" height="49" rx="13"/><rect x="630" y="426" width="60" height="49" rx="13"/><rect x="700" y="426" width="60" height="49" rx="13"/><rect x="770" y="426" width="60" height="49" rx="13"/><rect x="840" y="426" width="60" height="49" rx="13"/><rect x="910" y="426" width="60" height="49" rx="13"/><rect x="980" y="426" width="60" height="49" rx="13"/></g>
  </g>
  <!-- scrapbook-style bottom discovery drawer -->
  <g filter="url(#shadowB)"><path d="M49 746 Q683 715 1317 746 L1317 1000 L49 1000Z" fill="#FFFDF7" stroke="#432C22" stroke-width="3"/></g>
  <g transform="translate(76 757)"><rect width="172" height="206" rx="27" fill="#95D8FF" stroke="#432C22" stroke-width="3" transform="rotate(-3 86 103)"/><text x="86" y="66" text-anchor="middle" style="font:900 62px Arial;fill:#fff">O</text><text x="86" y="100" text-anchor="middle" style="font:900 22px Arial;fill:#432C22">Oxygen</text><path d="M48 133Q86 119 124 133V174Q86 187 48 174Z" fill="#fff" opacity=".75"/><text x="86" y="158" text-anchor="middle" style="font:900 15px Arial;fill:#3D6B86">Sticker #8</text></g>
  <g transform="translate(300 763)"><text x="0" y="24" style="font:900 22px Arial;fill:#432C22">Watch its tiny pieces zoom!</text><text x="0" y="48" class="subB">Swipe the atom to spin it.</text><g transform="translate(154 130)"><ellipse rx="125" ry="42" fill="none" stroke="#6E8FA3" stroke-width="3"/><ellipse rx="125" ry="42" fill="none" stroke="#6E8FA3" stroke-width="3" transform="rotate(60)"/><ellipse rx="125" ry="42" fill="none" stroke="#6E8FA3" stroke-width="3" transform="rotate(120)"/><circle r="42" fill="#F56646"/><circle cx="-16" cy="2" r="20" fill="#FFCF5C"/><circle cx="17" cy="-3" r="20" fill="#F78CA8"/><g fill="#486BFF" stroke="#fff" stroke-width="3"><circle cx="125" r="9"/><circle cx="-125" r="9"/><circle cx="60" cy="-83" r="9"/><circle cx="-60" cy="83" r="9"/><circle cx="30" cy="98" r="9"/><circle cx="-30" cy="-98" r="9"/><circle cx="90" cy="54" r="9"/><circle cx="-90" cy="-54" r="9"/></g></g></g>
  <path d="M755 762V966" stroke="#D7C9B8" stroke-width="3" stroke-dasharray="6 8"/>
  <g transform="translate(795 766)"><text x="0" y="24" style="font:900 22px Arial;fill:#432C22">Oxygen is hiding in...</text><g transform="translate(0 50)"><rect width="150" height="145" rx="23" fill="#DDF4FF" stroke="#432C22" stroke-width="2"/><path d="M48 74Q75 28 102 74Q88 102 75 102Q61 99 48 74" fill="#54B9EF"/><text x="75" y="127" text-anchor="middle" class="symB">Water</text></g><g transform="translate(168 50)"><rect width="150" height="145" rx="23" fill="#E0F6D7" stroke="#432C22" stroke-width="2"/><path d="M45 97Q50 39 103 32Q112 85 65 103Z" fill="#66C96D"/><text x="75" y="127" text-anchor="middle" class="symB">Leaves</text></g><g transform="translate(336 50)"><rect width="150" height="145" rx="23" fill="#FFE0E7" stroke="#432C22" stroke-width="2"/><path d="M75 51C57 27 31 42 37 68C41 88 75 101 75 101C75 101 109 88 113 68C119 42 93 27 75 51" fill="#F56678"/><text x="75" y="127" text-anchor="middle" class="symB">You!</text></g></g>
</svg>
